<svg xmlns="http://www.w3.org/2000/svg" width="269.596" height="55.323" viewBox="0 0 269.596 55.323"><defs><style>.a,.b{fill:#fff;}.a{font-size:30px;font-family:JosefinSans-SemiBold, Josefin Sans;font-weight:600;}</style></defs><g transform="translate(-389.404 -13.677)"><text class="a" transform="translate(450 61)"><tspan x="0" y="0">VIKAS MEHTA</tspan></text><g transform="translate(389.404 13.678)"><path class="b" d="M0,192.4a3.324,3.324,0,0,0,.594-.839Q7.2,181.266,13.811,170.982a.644.644,0,0,0,.044-.743c-1.486-2.806-2.963-5.629-4.441-8.444-.052-.1-.1-.2-.157-.3.07-.14.184-.087.28-.087,3,0,6.005,0,9-.009.323,0,.411.157.524.393q3.317,7.12,6.635,14.248c.061.131.122.262.21.437.787-1.3,1.547-2.561,2.308-3.829q4.615-7.684,9.213-15.358a.688.688,0,0,1,.682-.393c3.365.017,6.731.009,10.087.009.07.087,0,.14-.035.192l-8.47,13.217c-.035.052-.07.1-.1.14-1.154,1.853-2.343,3.68-3.514,5.524-.7,1.1-1.4,2.212-2.115,3.313a2.006,2.006,0,0,0-.306.629c-.5.927-1.1,1.783-1.661,2.666-2.037,3.173-4.056,6.355-6.1,9.519-.079.122-.122.262-.271.323-.236.052-.288-.14-.376-.288-.472-.752-.839-1.565-1.25-2.351-1.1-2.115-2.229-4.222-3.322-6.346-.594-1.154-1.206-2.29-1.844-3.505-.4.594-.752,1.154-1.11,1.713-1.477,2.316-2.989,4.624-4.467,6.94-.76,1.189-1.538,2.369-2.29,3.566a2.013,2.013,0,0,1-.28.332c-3.435,0-6.879,0-10.315-.009C.236,192.477.079,192.582,0,192.4Z" transform="translate(0 -143.185)"/><path class="b" d="M460.655.07a5,5,0,0,1,4.257,4.336,5.008,5.008,0,1,1-9.956,1.014A5.057,5.057,0,0,1,458.3.28c.332-.122.691-.184,1.031-.28h.874C460.341.1,460.515,0,460.655.07Z" transform="translate(-415.184)"/><path class="b" d="M515.455.07A.522.522,0,0,1,515,0h.437A.207.207,0,0,1,515.455.07Z" transform="translate(-469.983)"/><path class="b" d="M407.451,352.26q-3.815-5.953-7.649-11.914l-5.114-7.946q-1.193,1.875-2.386,3.732c-.7,1.1-1.4,2.212-2.115,3.313a2.005,2.005,0,0,0-.306.629c-.149.28-.315.559-.481.83.385.621.787,1.233,1.18,1.844,1.862,2.893,3.733,5.769,5.577,8.663a6.2,6.2,0,0,0,.892,1.241h10.577C407.652,352.479,407.529,352.374,407.451,352.26Z" transform="translate(-355.362 -303.344)"/></g></g></svg>